<mxfile host="app.diagrams.net" modified="2022-04-15T02:58:18.730Z" agent="5.0 (Windows NT 10.0; Win64; x64) AppleWebKit/537.36 (KHTML, like Gecko) Chrome/100.0.4896.127 Safari/537.36" etag="HsGfZmApaCB4KIA3F1Qt" version="17.4.1" type="github">
  <diagram name="Page-1" id="52a04d89-c75d-2922-d76d-85b35f80e030">
    <mxGraphModel dx="1965" dy="456" grid="1" gridSize="10" guides="1" tooltips="1" connect="1" arrows="1" fold="1" page="1" pageScale="1" pageWidth="1100" pageHeight="850" background="none" math="0" shadow="0">
      <root>
        <mxCell id="0" />
        <mxCell id="1" parent="0" />
        <mxCell id="21ea969265ad0168-30" value="Database" style="html=1;rounded=0;shadow=0;comic=0;labelBackgroundColor=none;strokeWidth=2;fontFamily=Verdana;fontSize=12;align=center;shape=mxgraph.ios7ui.horLines;" parent="1" vertex="1">
          <mxGeometry x="910" y="107" width="135" height="50" as="geometry" />
        </mxCell>
        <mxCell id="17472293e6e8944d-4" value="Database" style="html=1;rounded=0;shadow=0;comic=0;labelBackgroundColor=none;strokeWidth=2;fontFamily=Verdana;fontSize=12;align=center;shape=mxgraph.ios7ui.horLines;" parent="1" vertex="1">
          <mxGeometry x="910" y="205" width="135" height="50" as="geometry" />
        </mxCell>
        <mxCell id="17472293e6e8944d-29" value="Output" style="whiteSpace=wrap;html=1;rounded=0;shadow=0;comic=0;labelBackgroundColor=none;strokeWidth=1;fontFamily=Verdana;fontSize=12;align=center;" parent="1" vertex="1">
          <mxGeometry x="720" y="57" width="120" height="50" as="geometry" />
        </mxCell>
        <mxCell id="1fdf3b25b50cf41e-27" style="edgeStyle=none;html=1;labelBackgroundColor=none;startFill=0;startSize=8;endFill=1;endSize=8;fontFamily=Verdana;fontSize=12;" parent="1" source="17472293e6e8944d-30" target="1fdf3b25b50cf41e-1" edge="1">
          <mxGeometry relative="1" as="geometry" />
        </mxCell>
        <mxCell id="17472293e6e8944d-30" value="Input" style="whiteSpace=wrap;html=1;rounded=0;shadow=0;comic=0;labelBackgroundColor=none;strokeWidth=1;fontFamily=Verdana;fontSize=12;align=center;" parent="1" vertex="1">
          <mxGeometry x="60" y="55" width="120" height="50" as="geometry" />
        </mxCell>
        <mxCell id="1fdf3b25b50cf41e-28" style="edgeStyle=none;html=1;labelBackgroundColor=none;startFill=0;startSize=8;endFill=1;endSize=8;fontFamily=Verdana;fontSize=12;" parent="1" source="1fdf3b25b50cf41e-1" target="17472293e6e8944d-29" edge="1">
          <mxGeometry relative="1" as="geometry" />
        </mxCell>
        <mxCell id="1fdf3b25b50cf41e-29" style="edgeStyle=none;html=1;labelBackgroundColor=none;startFill=0;startSize=8;endFill=1;endSize=8;fontFamily=Verdana;fontSize=12;" parent="1" source="1fdf3b25b50cf41e-1" target="1fdf3b25b50cf41e-7" edge="1">
          <mxGeometry relative="1" as="geometry" />
        </mxCell>
        <mxCell id="1fdf3b25b50cf41e-38" style="edgeStyle=orthogonalEdgeStyle;html=1;labelBackgroundColor=none;startFill=0;startSize=8;endFill=1;endSize=8;fontFamily=Verdana;fontSize=12;" parent="1" source="1fdf3b25b50cf41e-1" target="21ea969265ad0168-30" edge="1">
          <mxGeometry relative="1" as="geometry">
            <Array as="points">
              <mxPoint x="540" y="132" />
            </Array>
          </mxGeometry>
        </mxCell>
        <mxCell id="1fdf3b25b50cf41e-1" value="1.5" style="swimlane;html=1;fontStyle=0;childLayout=stackLayout;horizontal=1;startSize=26;fillColor=#e0e0e0;horizontalStack=0;resizeParent=1;resizeLast=0;collapsible=1;marginBottom=0;swimlaneFillColor=#ffffff;align=center;rounded=1;shadow=0;comic=0;labelBackgroundColor=none;strokeWidth=1;fontFamily=Verdana;fontSize=12" parent="1" vertex="1">
          <mxGeometry x="430" y="54" width="140" height="52" as="geometry" />
        </mxCell>
        <mxCell id="1fdf3b25b50cf41e-2" value="Row 1" style="text;html=1;strokeColor=none;fillColor=none;spacingLeft=4;spacingRight=4;whiteSpace=wrap;overflow=hidden;rotatable=0;points=[[0,0.5],[1,0.5]];portConstraint=eastwest;align=center;" parent="1fdf3b25b50cf41e-1" vertex="1">
          <mxGeometry y="26" width="140" height="26" as="geometry" />
        </mxCell>
        <mxCell id="1fdf3b25b50cf41e-47" style="edgeStyle=orthogonalEdgeStyle;html=1;labelBackgroundColor=none;startFill=0;startSize=8;endFill=1;endSize=8;fontFamily=Verdana;fontSize=12;" parent="1" source="1fdf3b25b50cf41e-6" target="1fdf3b25b50cf41e-21" edge="1">
          <mxGeometry relative="1" as="geometry">
            <Array as="points">
              <mxPoint x="978" y="466" />
            </Array>
          </mxGeometry>
        </mxCell>
        <mxCell id="1fdf3b25b50cf41e-6" value="Database" style="html=1;rounded=0;shadow=0;comic=0;labelBackgroundColor=none;strokeWidth=2;fontFamily=Verdana;fontSize=12;align=center;shape=mxgraph.ios7ui.horLines;" parent="1" vertex="1">
          <mxGeometry x="910" y="380" width="135" height="50" as="geometry" />
        </mxCell>
        <mxCell id="1fdf3b25b50cf41e-35" style="edgeStyle=none;html=1;labelBackgroundColor=none;startFill=0;startSize=8;endFill=1;endSize=8;fontFamily=Verdana;fontSize=12;" parent="1" source="1fdf3b25b50cf41e-7" target="1fdf3b25b50cf41e-34" edge="1">
          <mxGeometry relative="1" as="geometry">
            <mxPoint x="570.0001622472457" y="179.9302333127779" as="targetPoint" />
          </mxGeometry>
        </mxCell>
        <mxCell id="1fdf3b25b50cf41e-39" style="edgeStyle=none;html=1;labelBackgroundColor=none;startFill=0;startSize=8;endFill=1;endSize=8;fontFamily=Verdana;fontSize=12;" parent="1" source="1fdf3b25b50cf41e-7" target="1fdf3b25b50cf41e-26" edge="1">
          <mxGeometry relative="1" as="geometry" />
        </mxCell>
        <mxCell id="1fdf3b25b50cf41e-7" value="1.6" style="swimlane;html=1;fontStyle=0;childLayout=stackLayout;horizontal=1;startSize=26;fillColor=#e0e0e0;horizontalStack=0;resizeParent=1;resizeLast=0;collapsible=1;marginBottom=0;swimlaneFillColor=#ffffff;align=center;rounded=1;shadow=0;comic=0;labelBackgroundColor=none;strokeWidth=1;fontFamily=Verdana;fontSize=12" parent="1" vertex="1">
          <mxGeometry x="430" y="154" width="140" height="52" as="geometry" />
        </mxCell>
        <mxCell id="1fdf3b25b50cf41e-8" value="Row 1" style="text;html=1;strokeColor=none;fillColor=none;spacingLeft=4;spacingRight=4;whiteSpace=wrap;overflow=hidden;rotatable=0;points=[[0,0.5],[1,0.5]];portConstraint=eastwest;align=center;" parent="1fdf3b25b50cf41e-7" vertex="1">
          <mxGeometry y="26" width="140" height="26" as="geometry" />
        </mxCell>
        <mxCell id="1fdf3b25b50cf41e-40" style="edgeStyle=none;html=1;labelBackgroundColor=none;startFill=0;startSize=8;endFill=1;endSize=8;fontFamily=Verdana;fontSize=12;" parent="1" source="1fdf3b25b50cf41e-9" target="1fdf3b25b50cf41e-7" edge="1">
          <mxGeometry relative="1" as="geometry" />
        </mxCell>
        <mxCell id="1fdf3b25b50cf41e-9" value="1.2" style="swimlane;html=1;fontStyle=0;childLayout=stackLayout;horizontal=1;startSize=26;fillColor=#e0e0e0;horizontalStack=0;resizeParent=1;resizeLast=0;collapsible=1;marginBottom=0;swimlaneFillColor=#ffffff;align=center;rounded=1;shadow=0;comic=0;labelBackgroundColor=none;strokeWidth=1;fontFamily=Verdana;fontSize=12" parent="1" vertex="1">
          <mxGeometry x="250" y="153" width="140" height="52" as="geometry" />
        </mxCell>
        <mxCell id="1fdf3b25b50cf41e-10" value="Row 1" style="text;html=1;strokeColor=none;fillColor=none;spacingLeft=4;spacingRight=4;whiteSpace=wrap;overflow=hidden;rotatable=0;points=[[0,0.5],[1,0.5]];portConstraint=eastwest;align=center;" parent="1fdf3b25b50cf41e-9" vertex="1">
          <mxGeometry y="26" width="140" height="26" as="geometry" />
        </mxCell>
        <mxCell id="1fdf3b25b50cf41e-31" style="edgeStyle=orthogonalEdgeStyle;html=1;labelBackgroundColor=none;startFill=0;startSize=8;endFill=1;endSize=8;fontFamily=Verdana;fontSize=12;" parent="1" source="1fdf3b25b50cf41e-11" target="17472293e6e8944d-4" edge="1">
          <mxGeometry relative="1" as="geometry">
            <Array as="points">
              <mxPoint x="810" y="230" />
            </Array>
          </mxGeometry>
        </mxCell>
        <mxCell id="1fdf3b25b50cf41e-11" value="1.9" style="swimlane;html=1;fontStyle=0;childLayout=stackLayout;horizontal=1;startSize=26;fillColor=#e0e0e0;horizontalStack=0;resizeParent=1;resizeLast=0;collapsible=1;marginBottom=0;swimlaneFillColor=#ffffff;align=center;rounded=1;shadow=0;comic=0;labelBackgroundColor=none;strokeWidth=1;fontFamily=Verdana;fontSize=12" parent="1" vertex="1">
          <mxGeometry x="740" y="153" width="140" height="52" as="geometry" />
        </mxCell>
        <mxCell id="1fdf3b25b50cf41e-12" value="Row 1" style="text;html=1;strokeColor=none;fillColor=none;spacingLeft=4;spacingRight=4;whiteSpace=wrap;overflow=hidden;rotatable=0;points=[[0,0.5],[1,0.5]];portConstraint=eastwest;align=center;" parent="1fdf3b25b50cf41e-11" vertex="1">
          <mxGeometry y="26" width="140" height="26" as="geometry" />
        </mxCell>
        <mxCell id="1fdf3b25b50cf41e-43" style="edgeStyle=none;html=1;labelBackgroundColor=none;startFill=0;startSize=8;endFill=1;endSize=8;fontFamily=Verdana;fontSize=12;" parent="1" source="1fdf3b25b50cf41e-13" target="1fdf3b25b50cf41e-19" edge="1">
          <mxGeometry relative="1" as="geometry" />
        </mxCell>
        <mxCell id="1fdf3b25b50cf41e-13" value="1.3" style="swimlane;html=1;fontStyle=0;childLayout=stackLayout;horizontal=1;startSize=26;fillColor=#e0e0e0;horizontalStack=0;resizeParent=1;resizeLast=0;collapsible=1;marginBottom=0;swimlaneFillColor=#ffffff;align=center;rounded=1;shadow=0;comic=0;labelBackgroundColor=none;strokeWidth=1;fontFamily=Verdana;fontSize=12" parent="1" vertex="1">
          <mxGeometry x="250" y="305" width="140" height="52" as="geometry" />
        </mxCell>
        <mxCell id="1fdf3b25b50cf41e-14" value="Row 1" style="text;html=1;strokeColor=none;fillColor=none;spacingLeft=4;spacingRight=4;whiteSpace=wrap;overflow=hidden;rotatable=0;points=[[0,0.5],[1,0.5]];portConstraint=eastwest;align=center;" parent="1fdf3b25b50cf41e-13" vertex="1">
          <mxGeometry y="26" width="140" height="26" as="geometry" />
        </mxCell>
        <mxCell id="1fdf3b25b50cf41e-46" style="edgeStyle=orthogonalEdgeStyle;html=1;labelBackgroundColor=none;startFill=0;startSize=8;endFill=1;endSize=8;fontFamily=Verdana;fontSize=12;" parent="1" source="1fdf3b25b50cf41e-15" target="1fdf3b25b50cf41e-6" edge="1">
          <mxGeometry relative="1" as="geometry">
            <Array as="points">
              <mxPoint x="650" y="400" />
            </Array>
          </mxGeometry>
        </mxCell>
        <mxCell id="1fdf3b25b50cf41e-15" value="1.8" style="swimlane;html=1;fontStyle=0;childLayout=stackLayout;horizontal=1;startSize=26;fillColor=#e0e0e0;horizontalStack=0;resizeParent=1;resizeLast=0;collapsible=1;marginBottom=0;swimlaneFillColor=#ffffff;align=center;rounded=1;shadow=0;comic=0;labelBackgroundColor=none;strokeWidth=1;fontFamily=Verdana;fontSize=12" parent="1" vertex="1">
          <mxGeometry x="580" y="304" width="140" height="52" as="geometry" />
        </mxCell>
        <mxCell id="1fdf3b25b50cf41e-16" value="Row 1" style="text;html=1;strokeColor=none;fillColor=none;spacingLeft=4;spacingRight=4;whiteSpace=wrap;overflow=hidden;rotatable=0;points=[[0,0.5],[1,0.5]];portConstraint=eastwest;align=center;" parent="1fdf3b25b50cf41e-15" vertex="1">
          <mxGeometry y="26" width="140" height="26" as="geometry" />
        </mxCell>
        <mxCell id="1fdf3b25b50cf41e-42" style="edgeStyle=none;html=1;labelBackgroundColor=none;startFill=0;startSize=8;endFill=1;endSize=8;fontFamily=Verdana;fontSize=12;" parent="1" source="1fdf3b25b50cf41e-17" target="1fdf3b25b50cf41e-25" edge="1">
          <mxGeometry relative="1" as="geometry" />
        </mxCell>
        <mxCell id="1fdf3b25b50cf41e-17" value="1.1" style="swimlane;html=1;fontStyle=0;childLayout=stackLayout;horizontal=1;startSize=26;fillColor=#e0e0e0;horizontalStack=0;resizeParent=1;resizeLast=0;collapsible=1;marginBottom=0;swimlaneFillColor=#ffffff;align=center;rounded=1;shadow=0;comic=0;labelBackgroundColor=none;strokeWidth=1;fontFamily=Verdana;fontSize=12" parent="1" vertex="1">
          <mxGeometry x="50" y="440" width="140" height="52" as="geometry" />
        </mxCell>
        <mxCell id="1fdf3b25b50cf41e-18" value="Row 1" style="text;html=1;strokeColor=none;fillColor=none;spacingLeft=4;spacingRight=4;whiteSpace=wrap;overflow=hidden;rotatable=0;points=[[0,0.5],[1,0.5]];portConstraint=eastwest;align=center;" parent="1fdf3b25b50cf41e-17" vertex="1">
          <mxGeometry y="26" width="140" height="26" as="geometry" />
        </mxCell>
        <mxCell id="1fdf3b25b50cf41e-44" style="edgeStyle=none;html=1;labelBackgroundColor=none;startFill=0;startSize=8;endFill=1;endSize=8;fontFamily=Verdana;fontSize=12;" parent="1" source="1fdf3b25b50cf41e-19" target="1fdf3b25b50cf41e-21" edge="1">
          <mxGeometry relative="1" as="geometry" />
        </mxCell>
        <mxCell id="1fdf3b25b50cf41e-48" style="edgeStyle=none;html=1;labelBackgroundColor=none;startFill=0;startSize=8;endFill=1;endSize=8;fontFamily=Verdana;fontSize=12;" parent="1" source="1fdf3b25b50cf41e-19" target="1fdf3b25b50cf41e-17" edge="1">
          <mxGeometry relative="1" as="geometry" />
        </mxCell>
        <mxCell id="1fdf3b25b50cf41e-19" value="1.4" style="swimlane;html=1;fontStyle=0;childLayout=stackLayout;horizontal=1;startSize=26;fillColor=#e0e0e0;horizontalStack=0;resizeParent=1;resizeLast=0;collapsible=1;marginBottom=0;swimlaneFillColor=#ffffff;align=center;rounded=1;shadow=0;comic=0;labelBackgroundColor=none;strokeWidth=1;fontFamily=Verdana;fontSize=12" parent="1" vertex="1">
          <mxGeometry x="250" y="440" width="140" height="52" as="geometry" />
        </mxCell>
        <mxCell id="1fdf3b25b50cf41e-20" value="Row 1" style="text;html=1;strokeColor=none;fillColor=none;spacingLeft=4;spacingRight=4;whiteSpace=wrap;overflow=hidden;rotatable=0;points=[[0,0.5],[1,0.5]];portConstraint=eastwest;align=center;" parent="1fdf3b25b50cf41e-19" vertex="1">
          <mxGeometry y="26" width="140" height="26" as="geometry" />
        </mxCell>
        <mxCell id="1fdf3b25b50cf41e-45" style="edgeStyle=none;html=1;labelBackgroundColor=none;startFill=0;startSize=8;endFill=1;endSize=8;fontFamily=Verdana;fontSize=12;" parent="1" source="1fdf3b25b50cf41e-21" target="1fdf3b25b50cf41e-26" edge="1">
          <mxGeometry relative="1" as="geometry" />
        </mxCell>
        <mxCell id="1fdf3b25b50cf41e-21" value="1.7" style="swimlane;html=1;fontStyle=0;childLayout=stackLayout;horizontal=1;startSize=26;fillColor=#e0e0e0;horizontalStack=0;resizeParent=1;resizeLast=0;collapsible=1;marginBottom=0;swimlaneFillColor=#ffffff;align=center;rounded=1;shadow=0;comic=0;labelBackgroundColor=none;strokeWidth=1;fontFamily=Verdana;fontSize=12" parent="1" vertex="1">
          <mxGeometry x="430" y="440" width="140" height="52" as="geometry" />
        </mxCell>
        <mxCell id="1fdf3b25b50cf41e-22" value="Row 1" style="text;html=1;strokeColor=none;fillColor=none;spacingLeft=4;spacingRight=4;whiteSpace=wrap;overflow=hidden;rotatable=0;points=[[0,0.5],[1,0.5]];portConstraint=eastwest;align=center;" parent="1fdf3b25b50cf41e-21" vertex="1">
          <mxGeometry y="26" width="140" height="26" as="geometry" />
        </mxCell>
        <mxCell id="1fdf3b25b50cf41e-41" style="edgeStyle=orthogonalEdgeStyle;html=1;labelBackgroundColor=none;startFill=0;startSize=8;endFill=1;endSize=8;fontFamily=Verdana;fontSize=12;" parent="1" source="1fdf3b25b50cf41e-25" target="1fdf3b25b50cf41e-9" edge="1">
          <mxGeometry relative="1" as="geometry">
            <Array as="points">
              <mxPoint x="120" y="179" />
            </Array>
          </mxGeometry>
        </mxCell>
        <mxCell id="1fdf3b25b50cf41e-25" value="Object" style="whiteSpace=wrap;html=1;rounded=0;shadow=0;comic=0;labelBackgroundColor=none;strokeWidth=1;fontFamily=Verdana;fontSize=12;align=center;" parent="1" vertex="1">
          <mxGeometry x="60" y="307" width="120" height="50" as="geometry" />
        </mxCell>
        <mxCell id="1fdf3b25b50cf41e-26" value="Object" style="whiteSpace=wrap;html=1;rounded=0;shadow=0;comic=0;labelBackgroundColor=none;strokeWidth=1;fontFamily=Verdana;fontSize=12;align=center;" parent="1" vertex="1">
          <mxGeometry x="440" y="307" width="120" height="50" as="geometry" />
        </mxCell>
        <mxCell id="1fdf3b25b50cf41e-36" style="edgeStyle=none;html=1;labelBackgroundColor=none;startFill=0;startSize=8;endFill=1;endSize=8;fontFamily=Verdana;fontSize=12;" parent="1" source="1fdf3b25b50cf41e-34" target="1fdf3b25b50cf41e-15" edge="1">
          <mxGeometry relative="1" as="geometry" />
        </mxCell>
        <mxCell id="1fdf3b25b50cf41e-37" style="edgeStyle=none;html=1;labelBackgroundColor=none;startFill=0;startSize=8;endFill=1;endSize=8;fontFamily=Verdana;fontSize=12;" parent="1" source="1fdf3b25b50cf41e-34" target="1fdf3b25b50cf41e-11" edge="1">
          <mxGeometry relative="1" as="geometry" />
        </mxCell>
        <mxCell id="1fdf3b25b50cf41e-34" value="" style="ellipse;whiteSpace=wrap;html=1;rounded=1;shadow=0;comic=0;labelBackgroundColor=none;strokeWidth=1;fontFamily=Verdana;fontSize=12;align=center;" parent="1" vertex="1">
          <mxGeometry x="635" y="165" width="30" height="30" as="geometry" />
        </mxCell>
        <mxCell id="qejZdifnQQVO7MGU1D6S-14" value="Số phòng" style="edgeStyle=orthogonalEdgeStyle;rounded=0;orthogonalLoop=1;jettySize=auto;html=1;exitX=0.25;exitY=1;exitDx=0;exitDy=0;entryX=0.75;entryY=1;entryDx=0;entryDy=0;" edge="1" parent="1" source="qejZdifnQQVO7MGU1D6S-1" target="qejZdifnQQVO7MGU1D6S-2">
          <mxGeometry relative="1" as="geometry" />
        </mxCell>
        <mxCell id="qejZdifnQQVO7MGU1D6S-24" value="Báo cáo" style="edgeStyle=orthogonalEdgeStyle;rounded=0;orthogonalLoop=1;jettySize=auto;html=1;exitX=0.75;exitY=0;exitDx=0;exitDy=0;entryX=0.75;entryY=1;entryDx=0;entryDy=0;" edge="1" parent="1" source="qejZdifnQQVO7MGU1D6S-1" target="qejZdifnQQVO7MGU1D6S-4">
          <mxGeometry relative="1" as="geometry" />
        </mxCell>
        <mxCell id="qejZdifnQQVO7MGU1D6S-34" value="Số người thuê phòng" style="edgeStyle=orthogonalEdgeStyle;rounded=0;orthogonalLoop=1;jettySize=auto;html=1;exitX=1;exitY=0.25;exitDx=0;exitDy=0;entryX=0.01;entryY=0.13;entryDx=0;entryDy=0;entryPerimeter=0;fontSize=12;" edge="1" parent="1" source="qejZdifnQQVO7MGU1D6S-1" target="qejZdifnQQVO7MGU1D6S-3">
          <mxGeometry relative="1" as="geometry">
            <Array as="points">
              <mxPoint x="590" y="728" />
            </Array>
          </mxGeometry>
        </mxCell>
        <mxCell id="qejZdifnQQVO7MGU1D6S-1" value="Hệ thống&lt;br&gt;Thuê Phòng" style="rounded=1;whiteSpace=wrap;html=1;" vertex="1" parent="1">
          <mxGeometry x="470" y="680" width="120" height="140" as="geometry" />
        </mxCell>
        <mxCell id="qejZdifnQQVO7MGU1D6S-8" value="Số người thuê phòng" style="edgeStyle=orthogonalEdgeStyle;rounded=0;orthogonalLoop=1;jettySize=auto;html=1;exitX=1;exitY=0;exitDx=0;exitDy=0;entryX=0.077;entryY=0.019;entryDx=0;entryDy=0;entryPerimeter=0;" edge="1" parent="1" source="qejZdifnQQVO7MGU1D6S-2" target="qejZdifnQQVO7MGU1D6S-1">
          <mxGeometry relative="1" as="geometry" />
        </mxCell>
        <mxCell id="qejZdifnQQVO7MGU1D6S-9" value="Họ tên khách hàng" style="edgeStyle=orthogonalEdgeStyle;rounded=0;orthogonalLoop=1;jettySize=auto;html=1;exitX=1;exitY=0.25;exitDx=0;exitDy=0;entryX=0;entryY=0.25;entryDx=0;entryDy=0;" edge="1" parent="1" source="qejZdifnQQVO7MGU1D6S-2" target="qejZdifnQQVO7MGU1D6S-1">
          <mxGeometry relative="1" as="geometry">
            <Array as="points">
              <mxPoint x="150" y="715" />
            </Array>
          </mxGeometry>
        </mxCell>
        <mxCell id="qejZdifnQQVO7MGU1D6S-10" value="Ngày thuê phòng" style="edgeStyle=orthogonalEdgeStyle;rounded=0;orthogonalLoop=1;jettySize=auto;html=1;exitX=1;exitY=0.5;exitDx=0;exitDy=0;" edge="1" parent="1" source="qejZdifnQQVO7MGU1D6S-2" target="qejZdifnQQVO7MGU1D6S-1">
          <mxGeometry relative="1" as="geometry" />
        </mxCell>
        <mxCell id="qejZdifnQQVO7MGU1D6S-11" value="Ngày&amp;nbsp; dự kiến Trả phòng" style="edgeStyle=orthogonalEdgeStyle;rounded=0;orthogonalLoop=1;jettySize=auto;html=1;exitX=1;exitY=0.75;exitDx=0;exitDy=0;entryX=0;entryY=0.75;entryDx=0;entryDy=0;" edge="1" parent="1" source="qejZdifnQQVO7MGU1D6S-2" target="qejZdifnQQVO7MGU1D6S-1">
          <mxGeometry relative="1" as="geometry">
            <Array as="points">
              <mxPoint x="150" y="785" />
            </Array>
          </mxGeometry>
        </mxCell>
        <mxCell id="qejZdifnQQVO7MGU1D6S-12" value="Ngày trả phòng" style="edgeStyle=orthogonalEdgeStyle;rounded=0;orthogonalLoop=1;jettySize=auto;html=1;exitX=1;exitY=1;exitDx=0;exitDy=0;entryX=0.083;entryY=0.929;entryDx=0;entryDy=0;entryPerimeter=0;" edge="1" parent="1" source="qejZdifnQQVO7MGU1D6S-2" target="qejZdifnQQVO7MGU1D6S-1">
          <mxGeometry relative="1" as="geometry">
            <Array as="points">
              <mxPoint x="150" y="810" />
            </Array>
          </mxGeometry>
        </mxCell>
        <mxCell id="qejZdifnQQVO7MGU1D6S-15" value="Tiền thuê phòng, dịch vụ" style="edgeStyle=orthogonalEdgeStyle;rounded=0;orthogonalLoop=1;jettySize=auto;html=1;entryX=0.25;entryY=1;entryDx=0;entryDy=0;" edge="1" parent="1" target="qejZdifnQQVO7MGU1D6S-2">
          <mxGeometry x="0.0345" relative="1" as="geometry">
            <mxPoint x="550" y="820" as="sourcePoint" />
            <mxPoint x="70" y="820" as="targetPoint" />
            <Array as="points">
              <mxPoint x="550" y="870" />
              <mxPoint x="60" y="870" />
            </Array>
            <mxPoint as="offset" />
          </mxGeometry>
        </mxCell>
        <mxCell id="qejZdifnQQVO7MGU1D6S-2" value="Khách hàng" style="rounded=0;whiteSpace=wrap;html=1;" vertex="1" parent="1">
          <mxGeometry x="30" y="720" width="120" height="60" as="geometry" />
        </mxCell>
        <mxCell id="qejZdifnQQVO7MGU1D6S-30" value="Số phòng" style="edgeStyle=orthogonalEdgeStyle;rounded=0;orthogonalLoop=1;jettySize=auto;html=1;exitX=0;exitY=0.5;exitDx=0;exitDy=0;entryX=1;entryY=0.5;entryDx=0;entryDy=0;fontSize=12;" edge="1" parent="1" source="qejZdifnQQVO7MGU1D6S-3" target="qejZdifnQQVO7MGU1D6S-1">
          <mxGeometry relative="1" as="geometry" />
        </mxCell>
        <mxCell id="qejZdifnQQVO7MGU1D6S-32" value="Tên, Số lần sử dụng dịch vụ" style="edgeStyle=orthogonalEdgeStyle;rounded=0;orthogonalLoop=1;jettySize=auto;html=1;exitX=0;exitY=1;exitDx=0;exitDy=0;entryX=1;entryY=0.75;entryDx=0;entryDy=0;fontSize=12;" edge="1" parent="1" source="qejZdifnQQVO7MGU1D6S-3" target="qejZdifnQQVO7MGU1D6S-1">
          <mxGeometry relative="1" as="geometry">
            <Array as="points">
              <mxPoint x="780" y="785" />
            </Array>
          </mxGeometry>
        </mxCell>
        <mxCell id="qejZdifnQQVO7MGU1D6S-3" value="Bộ Phận Quản Lý" style="rounded=0;whiteSpace=wrap;html=1;" vertex="1" parent="1">
          <mxGeometry x="780" y="720" width="120" height="60" as="geometry" />
        </mxCell>
        <mxCell id="qejZdifnQQVO7MGU1D6S-23" value="Y/cầu báo cáo" style="edgeStyle=orthogonalEdgeStyle;rounded=0;orthogonalLoop=1;jettySize=auto;html=1;exitX=0.25;exitY=1;exitDx=0;exitDy=0;entryX=0.25;entryY=0;entryDx=0;entryDy=0;" edge="1" parent="1" source="qejZdifnQQVO7MGU1D6S-4" target="qejZdifnQQVO7MGU1D6S-1">
          <mxGeometry relative="1" as="geometry" />
        </mxCell>
        <mxCell id="qejZdifnQQVO7MGU1D6S-4" value="Lãnh đạo công ty" style="rounded=0;whiteSpace=wrap;html=1;" vertex="1" parent="1">
          <mxGeometry x="470" y="530" width="120" height="60" as="geometry" />
        </mxCell>
        <mxCell id="qejZdifnQQVO7MGU1D6S-43" value="Y/cầu báo cáo" style="edgeStyle=orthogonalEdgeStyle;rounded=0;orthogonalLoop=1;jettySize=auto;html=1;exitX=1;exitY=0.25;exitDx=0;exitDy=0;entryX=0;entryY=0.25;entryDx=0;entryDy=0;fontSize=12;" edge="1" parent="1" source="qejZdifnQQVO7MGU1D6S-35" target="qejZdifnQQVO7MGU1D6S-37">
          <mxGeometry relative="1" as="geometry">
            <Array as="points">
              <mxPoint x="590" y="975" />
            </Array>
          </mxGeometry>
        </mxCell>
        <mxCell id="qejZdifnQQVO7MGU1D6S-35" value="Hệ thống&lt;br&gt;Quản lý tài sản" style="rounded=1;whiteSpace=wrap;html=1;fontSize=12;" vertex="1" parent="1">
          <mxGeometry x="470" y="940" width="120" height="100" as="geometry" />
        </mxCell>
        <mxCell id="qejZdifnQQVO7MGU1D6S-39" value="Stt trang bị" style="edgeStyle=orthogonalEdgeStyle;rounded=0;orthogonalLoop=1;jettySize=auto;html=1;exitX=1;exitY=0;exitDx=0;exitDy=0;entryX=0;entryY=0.25;entryDx=0;entryDy=0;fontSize=12;" edge="1" parent="1" source="qejZdifnQQVO7MGU1D6S-36" target="qejZdifnQQVO7MGU1D6S-35">
          <mxGeometry relative="1" as="geometry">
            <Array as="points">
              <mxPoint x="280" y="965" />
            </Array>
          </mxGeometry>
        </mxCell>
        <mxCell id="qejZdifnQQVO7MGU1D6S-40" value="Phòng trang bị" style="edgeStyle=orthogonalEdgeStyle;rounded=0;orthogonalLoop=1;jettySize=auto;html=1;exitX=1;exitY=0.5;exitDx=0;exitDy=0;fontSize=12;" edge="1" parent="1" source="qejZdifnQQVO7MGU1D6S-36" target="qejZdifnQQVO7MGU1D6S-35">
          <mxGeometry relative="1" as="geometry" />
        </mxCell>
        <mxCell id="qejZdifnQQVO7MGU1D6S-41" value="Ngày trang bị" style="edgeStyle=orthogonalEdgeStyle;rounded=0;orthogonalLoop=1;jettySize=auto;html=1;exitX=1;exitY=1;exitDx=0;exitDy=0;entryX=0;entryY=0.75;entryDx=0;entryDy=0;fontSize=12;" edge="1" parent="1" source="qejZdifnQQVO7MGU1D6S-36" target="qejZdifnQQVO7MGU1D6S-35">
          <mxGeometry relative="1" as="geometry">
            <Array as="points">
              <mxPoint x="280" y="1015" />
            </Array>
          </mxGeometry>
        </mxCell>
        <mxCell id="qejZdifnQQVO7MGU1D6S-36" value="Bộ phận quản lý" style="rounded=0;whiteSpace=wrap;html=1;fontSize=12;" vertex="1" parent="1">
          <mxGeometry x="160" y="960" width="120" height="60" as="geometry" />
        </mxCell>
        <mxCell id="qejZdifnQQVO7MGU1D6S-45" value="Báo cáo" style="edgeStyle=orthogonalEdgeStyle;rounded=0;orthogonalLoop=1;jettySize=auto;html=1;exitX=0;exitY=0.75;exitDx=0;exitDy=0;entryX=1;entryY=0.75;entryDx=0;entryDy=0;fontSize=12;" edge="1" parent="1" source="qejZdifnQQVO7MGU1D6S-37" target="qejZdifnQQVO7MGU1D6S-35">
          <mxGeometry relative="1" as="geometry">
            <Array as="points">
              <mxPoint x="710" y="1015" />
            </Array>
          </mxGeometry>
        </mxCell>
        <mxCell id="qejZdifnQQVO7MGU1D6S-37" value="Lãnh đạo công ty" style="rounded=0;whiteSpace=wrap;html=1;fontSize=12;" vertex="1" parent="1">
          <mxGeometry x="710" y="960" width="120" height="60" as="geometry" />
        </mxCell>
        <mxCell id="qejZdifnQQVO7MGU1D6S-98" value="Tổng tiền phải trả" style="edgeStyle=orthogonalEdgeStyle;rounded=0;orthogonalLoop=1;jettySize=auto;html=1;exitX=0.5;exitY=0;exitDx=0;exitDy=0;entryX=0.5;entryY=1;entryDx=0;entryDy=0;fontSize=12;" edge="1" parent="1" source="qejZdifnQQVO7MGU1D6S-46" target="qejZdifnQQVO7MGU1D6S-89">
          <mxGeometry relative="1" as="geometry" />
        </mxCell>
        <mxCell id="qejZdifnQQVO7MGU1D6S-46" value="&#xa;&#xa;2.0&#xa;&#xa;Trả phòng" style="swimlane;fontStyle=0;childLayout=stackLayout;horizontal=1;startSize=20;fillColor=#ffffff;horizontalStack=0;resizeParent=1;resizeParentMax=0;resizeLast=0;collapsible=0;marginBottom=0;swimlaneFillColor=#ffffff;fontSize=12;" vertex="1" parent="1">
          <mxGeometry x="630" y="1430" width="100" height="70" as="geometry" />
        </mxCell>
        <mxCell id="qejZdifnQQVO7MGU1D6S-50" value="&#xa;&#xa;1.0&#xa;&#xa;Quản lý trang bị" style="swimlane;fontStyle=0;childLayout=stackLayout;horizontal=1;startSize=20;fillColor=#ffffff;horizontalStack=0;resizeParent=1;resizeParentMax=0;resizeLast=0;collapsible=0;marginBottom=0;swimlaneFillColor=#ffffff;fontSize=12;" vertex="1" parent="1">
          <mxGeometry x="770" y="1140" width="100" height="70" as="geometry" />
        </mxCell>
        <mxCell id="qejZdifnQQVO7MGU1D6S-51" value="&#xa;&#xa;2.0&#xa;&#xa;Báo cáo" style="swimlane;fontStyle=0;childLayout=stackLayout;horizontal=1;startSize=20;fillColor=#ffffff;horizontalStack=0;resizeParent=1;resizeParentMax=0;resizeLast=0;collapsible=0;marginBottom=0;swimlaneFillColor=#ffffff;fontSize=12;" vertex="1" parent="1">
          <mxGeometry x="900" y="1150" width="100" height="70" as="geometry" />
        </mxCell>
        <mxCell id="qejZdifnQQVO7MGU1D6S-101" value="Số phòng" style="edgeStyle=orthogonalEdgeStyle;rounded=0;orthogonalLoop=1;jettySize=auto;html=1;exitX=0;exitY=0.75;exitDx=0;exitDy=0;entryX=1;entryY=0.75;entryDx=0;entryDy=0;fontSize=12;" edge="1" parent="1" source="qejZdifnQQVO7MGU1D6S-53" target="qejZdifnQQVO7MGU1D6S-85">
          <mxGeometry relative="1" as="geometry">
            <Array as="points">
              <mxPoint x="160" y="1360" />
            </Array>
          </mxGeometry>
        </mxCell>
        <mxCell id="qejZdifnQQVO7MGU1D6S-53" value="&#xa;&#xa;1.0&#xa;&#xa;Đặt phòng" style="swimlane;fontStyle=0;childLayout=stackLayout;horizontal=1;startSize=20;fillColor=#ffffff;horizontalStack=0;resizeParent=1;resizeParentMax=0;resizeLast=0;collapsible=0;marginBottom=0;swimlaneFillColor=#ffffff;fontSize=12;" vertex="1" parent="1">
          <mxGeometry x="160" y="1300" width="100" height="90" as="geometry" />
        </mxCell>
        <mxCell id="qejZdifnQQVO7MGU1D6S-54" value="a&amp;nbsp;&lt;span style=&quot;white-space: pre&quot;&gt;	&lt;/span&gt;&amp;nbsp;Số người thuê phòng" style="html=1;dashed=0;whitespace=wrap;shape=mxgraph.dfd.dataStoreID;align=left;spacingLeft=3;points=[[0,0],[0.5,0],[1,0],[0,0.5],[1,0.5],[0,1],[0.5,1],[1,1]];fontSize=12;" vertex="1" parent="1">
          <mxGeometry x="350" y="1260" width="160" height="30" as="geometry" />
        </mxCell>
        <mxCell id="qejZdifnQQVO7MGU1D6S-55" value="e&lt;span style=&quot;white-space: pre&quot;&gt;	&lt;/span&gt;&amp;nbsp;Số phòng" style="html=1;dashed=0;whitespace=wrap;shape=mxgraph.dfd.dataStoreID;align=left;spacingLeft=3;points=[[0,0],[0.5,0],[1,0],[0,0.5],[1,0.5],[0,1],[0.5,1],[1,1]];fontSize=12;" vertex="1" parent="1">
          <mxGeometry x="350" y="1460" width="160" height="30" as="geometry" />
        </mxCell>
        <mxCell id="qejZdifnQQVO7MGU1D6S-56" value="d&amp;nbsp;&lt;span style=&quot;white-space: pre&quot;&gt;	&lt;/span&gt;&amp;nbsp;Ngày dự kiến trả phòng" style="html=1;dashed=0;whitespace=wrap;shape=mxgraph.dfd.dataStoreID;align=left;spacingLeft=3;points=[[0,0],[0.5,0],[1,0],[0,0.5],[1,0.5],[0,1],[0.5,1],[1,1]];fontSize=12;" vertex="1" parent="1">
          <mxGeometry x="350" y="1410" width="160" height="30" as="geometry" />
        </mxCell>
        <mxCell id="qejZdifnQQVO7MGU1D6S-57" value="c&amp;nbsp;&lt;span style=&quot;white-space: pre&quot;&gt;	&lt;/span&gt;&amp;nbsp;Ngày thuê phòng" style="html=1;dashed=0;whitespace=wrap;shape=mxgraph.dfd.dataStoreID;align=left;spacingLeft=3;points=[[0,0],[0.5,0],[1,0],[0,0.5],[1,0.5],[0,1],[0.5,1],[1,1]];fontSize=12;" vertex="1" parent="1">
          <mxGeometry x="350" y="1360" width="160" height="30" as="geometry" />
        </mxCell>
        <mxCell id="qejZdifnQQVO7MGU1D6S-58" value="b&amp;nbsp;&lt;span style=&quot;white-space: pre&quot;&gt;	&lt;/span&gt;&amp;nbsp;Họ tên khách hàng" style="html=1;dashed=0;whitespace=wrap;shape=mxgraph.dfd.dataStoreID;align=left;spacingLeft=3;points=[[0,0],[0.5,0],[1,0],[0,0.5],[1,0.5],[0,1],[0.5,1],[1,1]];fontSize=12;" vertex="1" parent="1">
          <mxGeometry x="350" y="1310" width="160" height="30" as="geometry" />
        </mxCell>
        <mxCell id="qejZdifnQQVO7MGU1D6S-59" value="h&amp;nbsp;&lt;span style=&quot;white-space: pre&quot;&gt;	&lt;/span&gt;&amp;nbsp;Tổng tiền phải trả" style="html=1;dashed=0;whitespace=wrap;shape=mxgraph.dfd.dataStoreID;align=left;spacingLeft=3;points=[[0,0],[0.5,0],[1,0],[0,0.5],[1,0.5],[0,1],[0.5,1],[1,1]];fontSize=12;" vertex="1" parent="1">
          <mxGeometry x="350" y="1610" width="160" height="30" as="geometry" />
        </mxCell>
        <mxCell id="qejZdifnQQVO7MGU1D6S-60" value="g&amp;nbsp;&lt;span style=&quot;white-space: pre&quot;&gt;	&lt;/span&gt;&amp;nbsp;Tên, số lần sử dụng dịch vụ" style="html=1;dashed=0;whitespace=wrap;shape=mxgraph.dfd.dataStoreID;align=left;spacingLeft=3;points=[[0,0],[0.5,0],[1,0],[0,0.5],[1,0.5],[0,1],[0.5,1],[1,1]];fontSize=12;" vertex="1" parent="1">
          <mxGeometry x="350" y="1560" width="190" height="30" as="geometry" />
        </mxCell>
        <mxCell id="qejZdifnQQVO7MGU1D6S-61" value="f&lt;span style=&quot;white-space: pre&quot;&gt;	&lt;/span&gt;&amp;nbsp;Tiền thuê phòng" style="html=1;dashed=0;whitespace=wrap;shape=mxgraph.dfd.dataStoreID;align=left;spacingLeft=3;points=[[0,0],[0.5,0],[1,0],[0,0.5],[1,0.5],[0,1],[0.5,1],[1,1]];fontSize=12;" vertex="1" parent="1">
          <mxGeometry x="350" y="1510" width="160" height="30" as="geometry" />
        </mxCell>
        <mxCell id="qejZdifnQQVO7MGU1D6S-62" value="i&amp;nbsp;&lt;span style=&quot;white-space: pre&quot;&gt;	&lt;/span&gt;&amp;nbsp;Báo cáo" style="html=1;dashed=0;whitespace=wrap;shape=mxgraph.dfd.dataStoreID;align=left;spacingLeft=3;points=[[0,0],[0.5,0],[1,0],[0,0.5],[1,0.5],[0,1],[0.5,1],[1,1]];fontSize=12;" vertex="1" parent="1">
          <mxGeometry x="350" y="1660" width="160" height="30" as="geometry" />
        </mxCell>
        <mxCell id="qejZdifnQQVO7MGU1D6S-92" value="Y/c báo cáo" style="edgeStyle=orthogonalEdgeStyle;rounded=0;orthogonalLoop=1;jettySize=auto;html=1;exitX=0;exitY=1;exitDx=0;exitDy=0;entryX=1;entryY=0.75;entryDx=0;entryDy=0;fontSize=12;" edge="1" parent="1" source="qejZdifnQQVO7MGU1D6S-63" target="qejZdifnQQVO7MGU1D6S-90">
          <mxGeometry relative="1" as="geometry">
            <Array as="points">
              <mxPoint x="160" y="1625" />
            </Array>
          </mxGeometry>
        </mxCell>
        <mxCell id="qejZdifnQQVO7MGU1D6S-63" value="&#xa;&#xa;3.0&#xa;&#xa;Báo cáo" style="swimlane;fontStyle=0;childLayout=stackLayout;horizontal=1;startSize=20;fillColor=#ffffff;horizontalStack=0;resizeParent=1;resizeParentMax=0;resizeLast=0;collapsible=0;marginBottom=0;swimlaneFillColor=#ffffff;fontSize=12;" vertex="1" parent="1">
          <mxGeometry x="160" y="1560" width="100" height="70" as="geometry" />
        </mxCell>
        <mxCell id="qejZdifnQQVO7MGU1D6S-65" value="" style="endArrow=classic;startArrow=classic;html=1;rounded=0;fontSize=12;exitX=1;exitY=0.25;exitDx=0;exitDy=0;entryX=0;entryY=0.5;entryDx=0;entryDy=0;" edge="1" parent="1" source="qejZdifnQQVO7MGU1D6S-53" target="qejZdifnQQVO7MGU1D6S-54">
          <mxGeometry width="50" height="50" relative="1" as="geometry">
            <mxPoint x="200" y="1300" as="sourcePoint" />
            <mxPoint x="250" y="1250" as="targetPoint" />
          </mxGeometry>
        </mxCell>
        <mxCell id="qejZdifnQQVO7MGU1D6S-66" value="" style="endArrow=classic;startArrow=classic;html=1;rounded=0;fontSize=12;entryX=0;entryY=0.5;entryDx=0;entryDy=0;exitX=1;exitY=0.5;exitDx=0;exitDy=0;" edge="1" parent="1" source="qejZdifnQQVO7MGU1D6S-53" target="qejZdifnQQVO7MGU1D6S-58">
          <mxGeometry width="50" height="50" relative="1" as="geometry">
            <mxPoint x="220" y="1340" as="sourcePoint" />
            <mxPoint x="310" y="1340" as="targetPoint" />
          </mxGeometry>
        </mxCell>
        <mxCell id="qejZdifnQQVO7MGU1D6S-67" value="" style="endArrow=classic;startArrow=classic;html=1;rounded=0;fontSize=12;exitX=1;exitY=0.75;exitDx=0;exitDy=0;entryX=0;entryY=0.5;entryDx=0;entryDy=0;" edge="1" parent="1" source="qejZdifnQQVO7MGU1D6S-53" target="qejZdifnQQVO7MGU1D6S-57">
          <mxGeometry width="50" height="50" relative="1" as="geometry">
            <mxPoint x="260" y="1380" as="sourcePoint" />
            <mxPoint x="310" y="1330" as="targetPoint" />
          </mxGeometry>
        </mxCell>
        <mxCell id="qejZdifnQQVO7MGU1D6S-68" value="" style="endArrow=classic;startArrow=classic;html=1;rounded=0;fontSize=12;exitX=1;exitY=1;exitDx=0;exitDy=0;entryX=0;entryY=0.5;entryDx=0;entryDy=0;" edge="1" parent="1" source="qejZdifnQQVO7MGU1D6S-53" target="qejZdifnQQVO7MGU1D6S-56">
          <mxGeometry width="50" height="50" relative="1" as="geometry">
            <mxPoint x="260" y="1460" as="sourcePoint" />
            <mxPoint x="310" y="1410" as="targetPoint" />
          </mxGeometry>
        </mxCell>
        <mxCell id="qejZdifnQQVO7MGU1D6S-69" value="" style="endArrow=classic;html=1;rounded=0;fontSize=12;entryX=0.75;entryY=1;entryDx=0;entryDy=0;exitX=0;exitY=0.5;exitDx=0;exitDy=0;" edge="1" parent="1" source="qejZdifnQQVO7MGU1D6S-55" target="qejZdifnQQVO7MGU1D6S-53">
          <mxGeometry width="50" height="50" relative="1" as="geometry">
            <mxPoint x="270" y="1480" as="sourcePoint" />
            <mxPoint x="320" y="1430" as="targetPoint" />
          </mxGeometry>
        </mxCell>
        <mxCell id="qejZdifnQQVO7MGU1D6S-70" value="" style="endArrow=classic;html=1;rounded=0;fontSize=12;entryX=0.5;entryY=1;entryDx=0;entryDy=0;exitX=0;exitY=0.5;exitDx=0;exitDy=0;" edge="1" parent="1" source="qejZdifnQQVO7MGU1D6S-61" target="qejZdifnQQVO7MGU1D6S-53">
          <mxGeometry width="50" height="50" relative="1" as="geometry">
            <mxPoint x="210" y="1490" as="sourcePoint" />
            <mxPoint x="260" y="1440" as="targetPoint" />
          </mxGeometry>
        </mxCell>
        <mxCell id="qejZdifnQQVO7MGU1D6S-71" value="" style="endArrow=classic;startArrow=classic;html=1;rounded=0;fontSize=12;entryX=0;entryY=0.75;entryDx=0;entryDy=0;exitX=1;exitY=0.5;exitDx=0;exitDy=0;" edge="1" parent="1" source="qejZdifnQQVO7MGU1D6S-60" target="qejZdifnQQVO7MGU1D6S-46">
          <mxGeometry width="50" height="50" relative="1" as="geometry">
            <mxPoint x="590" y="1570" as="sourcePoint" />
            <mxPoint x="640" y="1520" as="targetPoint" />
          </mxGeometry>
        </mxCell>
        <mxCell id="qejZdifnQQVO7MGU1D6S-72" value="" style="endArrow=classic;startArrow=classic;html=1;rounded=0;fontSize=12;entryX=0.25;entryY=1;entryDx=0;entryDy=0;exitX=1;exitY=0.5;exitDx=0;exitDy=0;" edge="1" parent="1" source="qejZdifnQQVO7MGU1D6S-62" target="qejZdifnQQVO7MGU1D6S-46">
          <mxGeometry width="50" height="50" relative="1" as="geometry">
            <mxPoint x="550" y="1640" as="sourcePoint" />
            <mxPoint x="600" y="1590" as="targetPoint" />
          </mxGeometry>
        </mxCell>
        <mxCell id="qejZdifnQQVO7MGU1D6S-74" value="" style="endArrow=classic;startArrow=classic;html=1;rounded=0;fontSize=12;entryX=0;entryY=0.5;entryDx=0;entryDy=0;exitX=1;exitY=0.5;exitDx=0;exitDy=0;" edge="1" parent="1" source="qejZdifnQQVO7MGU1D6S-61" target="qejZdifnQQVO7MGU1D6S-46">
          <mxGeometry width="50" height="50" relative="1" as="geometry">
            <mxPoint x="540" y="1570" as="sourcePoint" />
            <mxPoint x="630" y="1410" as="targetPoint" />
          </mxGeometry>
        </mxCell>
        <mxCell id="qejZdifnQQVO7MGU1D6S-75" value="" style="endArrow=classic;html=1;rounded=0;fontSize=12;exitX=1;exitY=0.5;exitDx=0;exitDy=0;entryX=0;entryY=1;entryDx=0;entryDy=0;" edge="1" parent="1" source="qejZdifnQQVO7MGU1D6S-59" target="qejZdifnQQVO7MGU1D6S-46">
          <mxGeometry width="50" height="50" relative="1" as="geometry">
            <mxPoint x="580" y="1630" as="sourcePoint" />
            <mxPoint x="690" y="1550" as="targetPoint" />
          </mxGeometry>
        </mxCell>
        <mxCell id="qejZdifnQQVO7MGU1D6S-77" value="" style="endArrow=classic;html=1;rounded=0;fontSize=12;exitX=0;exitY=0.5;exitDx=0;exitDy=0;entryX=1;entryY=0.5;entryDx=0;entryDy=0;" edge="1" parent="1" source="qejZdifnQQVO7MGU1D6S-59" target="qejZdifnQQVO7MGU1D6S-63">
          <mxGeometry width="50" height="50" relative="1" as="geometry">
            <mxPoint x="270" y="1650" as="sourcePoint" />
            <mxPoint x="320" y="1600" as="targetPoint" />
          </mxGeometry>
        </mxCell>
        <mxCell id="qejZdifnQQVO7MGU1D6S-78" value="" style="endArrow=classic;html=1;rounded=0;fontSize=12;entryX=1;entryY=0.75;entryDx=0;entryDy=0;exitX=0;exitY=0.5;exitDx=0;exitDy=0;" edge="1" parent="1" source="qejZdifnQQVO7MGU1D6S-62" target="qejZdifnQQVO7MGU1D6S-63">
          <mxGeometry width="50" height="50" relative="1" as="geometry">
            <mxPoint x="210" y="1710" as="sourcePoint" />
            <mxPoint x="260" y="1660" as="targetPoint" />
          </mxGeometry>
        </mxCell>
        <mxCell id="qejZdifnQQVO7MGU1D6S-79" value="c&amp;nbsp;&lt;span style=&quot;white-space: pre&quot;&gt;	&lt;/span&gt;&amp;nbsp;Ngày trang bị" style="html=1;dashed=0;whitespace=wrap;shape=mxgraph.dfd.dataStoreID;align=left;spacingLeft=3;points=[[0,0],[0.5,0],[1,0],[0,0.5],[1,0.5],[0,1],[0.5,1],[1,1]];fontSize=12;" vertex="1" parent="1">
          <mxGeometry x="1000" y="1440" width="160" height="30" as="geometry" />
        </mxCell>
        <mxCell id="qejZdifnQQVO7MGU1D6S-80" value="b&amp;nbsp;&lt;span style=&quot;white-space: pre&quot;&gt;	&lt;/span&gt;&amp;nbsp;Phòng trang bị" style="html=1;dashed=0;whitespace=wrap;shape=mxgraph.dfd.dataStoreID;align=left;spacingLeft=3;points=[[0,0],[0.5,0],[1,0],[0,0.5],[1,0.5],[0,1],[0.5,1],[1,1]];fontSize=12;" vertex="1" parent="1">
          <mxGeometry x="1000" y="1390" width="160" height="30" as="geometry" />
        </mxCell>
        <mxCell id="qejZdifnQQVO7MGU1D6S-81" value="a&amp;nbsp;&lt;span style=&quot;white-space: pre&quot;&gt;	&lt;/span&gt;&amp;nbsp;Stt trang bị" style="html=1;dashed=0;whitespace=wrap;shape=mxgraph.dfd.dataStoreID;align=left;spacingLeft=3;points=[[0,0],[0.5,0],[1,0],[0,0.5],[1,0.5],[0,1],[0.5,1],[1,1]];fontSize=12;" vertex="1" parent="1">
          <mxGeometry x="1000" y="1340" width="160" height="30" as="geometry" />
        </mxCell>
        <mxCell id="qejZdifnQQVO7MGU1D6S-82" value="d&amp;nbsp;&lt;span style=&quot;white-space: pre&quot;&gt;	&lt;/span&gt;&amp;nbsp;Báo cáo" style="html=1;dashed=0;whitespace=wrap;shape=mxgraph.dfd.dataStoreID;align=left;spacingLeft=3;points=[[0,0],[0.5,0],[1,0],[0,0.5],[1,0.5],[0,1],[0.5,1],[1,1]];fontSize=12;" vertex="1" parent="1">
          <mxGeometry x="1000" y="1490" width="160" height="30" as="geometry" />
        </mxCell>
        <mxCell id="qejZdifnQQVO7MGU1D6S-116" value="Báo cáo" style="edgeStyle=orthogonalEdgeStyle;rounded=0;orthogonalLoop=1;jettySize=auto;html=1;exitX=1;exitY=0.5;exitDx=0;exitDy=0;entryX=1;entryY=0.75;entryDx=0;entryDy=0;fontSize=12;" edge="1" parent="1" source="qejZdifnQQVO7MGU1D6S-83" target="qejZdifnQQVO7MGU1D6S-88">
          <mxGeometry relative="1" as="geometry" />
        </mxCell>
        <mxCell id="qejZdifnQQVO7MGU1D6S-83" value="&#xa;&#xa;2.0&#xa;&#xa;Báo cáo" style="swimlane;fontStyle=0;childLayout=stackLayout;horizontal=1;startSize=20;fillColor=#ffffff;horizontalStack=0;resizeParent=1;resizeParentMax=0;resizeLast=0;collapsible=0;marginBottom=0;swimlaneFillColor=#ffffff;fontSize=12;" vertex="1" parent="1">
          <mxGeometry x="1250" y="1395" width="100" height="70" as="geometry" />
        </mxCell>
        <mxCell id="qejZdifnQQVO7MGU1D6S-84" value="&#xa;&#xa;1.0&#xa;&#xa;Quản lý trang bị" style="swimlane;fontStyle=0;childLayout=stackLayout;horizontal=1;startSize=20;fillColor=#ffffff;horizontalStack=0;resizeParent=1;resizeParentMax=0;resizeLast=0;collapsible=0;marginBottom=0;swimlaneFillColor=#ffffff;fontSize=12;" vertex="1" parent="1">
          <mxGeometry x="830" y="1400" width="100" height="70" as="geometry" />
        </mxCell>
        <mxCell id="qejZdifnQQVO7MGU1D6S-93" value="Thông tin khách" style="edgeStyle=orthogonalEdgeStyle;rounded=0;orthogonalLoop=1;jettySize=auto;html=1;exitX=1;exitY=0.25;exitDx=0;exitDy=0;fontSize=12;" edge="1" parent="1" source="qejZdifnQQVO7MGU1D6S-85">
          <mxGeometry relative="1" as="geometry">
            <mxPoint x="160" y="1340" as="targetPoint" />
            <Array as="points">
              <mxPoint x="120" y="1340" />
              <mxPoint x="120" y="1340" />
            </Array>
          </mxGeometry>
        </mxCell>
        <mxCell id="qejZdifnQQVO7MGU1D6S-85" value="Khách hàng" style="rounded=0;whiteSpace=wrap;html=1;fontSize=12;" vertex="1" parent="1">
          <mxGeometry x="-40" y="1315" width="70" height="60" as="geometry" />
        </mxCell>
        <mxCell id="qejZdifnQQVO7MGU1D6S-110" value="Thông tin trang bị" style="edgeStyle=orthogonalEdgeStyle;rounded=0;orthogonalLoop=1;jettySize=auto;html=1;exitX=0.25;exitY=1;exitDx=0;exitDy=0;entryX=0.25;entryY=0;entryDx=0;entryDy=0;fontSize=12;" edge="1" parent="1" source="qejZdifnQQVO7MGU1D6S-87" target="qejZdifnQQVO7MGU1D6S-84">
          <mxGeometry relative="1" as="geometry">
            <Array as="points">
              <mxPoint x="855" y="1350" />
            </Array>
          </mxGeometry>
        </mxCell>
        <mxCell id="qejZdifnQQVO7MGU1D6S-111" value="Báo cáo" style="edgeStyle=orthogonalEdgeStyle;rounded=0;orthogonalLoop=1;jettySize=auto;html=1;entryX=0.89;entryY=-0.005;entryDx=0;entryDy=0;entryPerimeter=0;fontSize=12;" edge="1" parent="1" source="qejZdifnQQVO7MGU1D6S-87" target="qejZdifnQQVO7MGU1D6S-84">
          <mxGeometry relative="1" as="geometry">
            <Array as="points">
              <mxPoint x="920" y="1288" />
              <mxPoint x="920" y="1358" />
              <mxPoint x="919" y="1358" />
            </Array>
          </mxGeometry>
        </mxCell>
        <mxCell id="qejZdifnQQVO7MGU1D6S-87" value="Bộ phận quản lý" style="rounded=0;whiteSpace=wrap;html=1;fontSize=12;" vertex="1" parent="1">
          <mxGeometry x="840" y="1260" width="70" height="55" as="geometry" />
        </mxCell>
        <mxCell id="qejZdifnQQVO7MGU1D6S-113" value="Y/c báo cáo" style="edgeStyle=orthogonalEdgeStyle;rounded=0;orthogonalLoop=1;jettySize=auto;html=1;exitX=0.25;exitY=1;exitDx=0;exitDy=0;entryX=0.323;entryY=0.01;entryDx=0;entryDy=0;entryPerimeter=0;fontSize=12;" edge="1" parent="1" source="qejZdifnQQVO7MGU1D6S-88" target="qejZdifnQQVO7MGU1D6S-83">
          <mxGeometry relative="1" as="geometry">
            <Array as="points">
              <mxPoint x="1282" y="1350" />
            </Array>
          </mxGeometry>
        </mxCell>
        <mxCell id="qejZdifnQQVO7MGU1D6S-88" value="Lãnh đạo công ty" style="rounded=0;whiteSpace=wrap;html=1;fontSize=12;" vertex="1" parent="1">
          <mxGeometry x="1257.5" y="1290" width="85" height="60" as="geometry" />
        </mxCell>
        <mxCell id="qejZdifnQQVO7MGU1D6S-89" value="Khách hàng" style="rounded=0;whiteSpace=wrap;html=1;fontSize=12;" vertex="1" parent="1">
          <mxGeometry x="645" y="1325" width="70" height="45" as="geometry" />
        </mxCell>
        <mxCell id="qejZdifnQQVO7MGU1D6S-91" value="Báo cáo" style="edgeStyle=orthogonalEdgeStyle;rounded=0;orthogonalLoop=1;jettySize=auto;html=1;exitX=1;exitY=0.25;exitDx=0;exitDy=0;entryX=0;entryY=0.5;entryDx=0;entryDy=0;fontSize=12;" edge="1" parent="1" source="qejZdifnQQVO7MGU1D6S-90" target="qejZdifnQQVO7MGU1D6S-63">
          <mxGeometry relative="1" as="geometry" />
        </mxCell>
        <mxCell id="qejZdifnQQVO7MGU1D6S-90" value="Lãnh đạo công ty" style="rounded=0;whiteSpace=wrap;html=1;fontSize=12;" vertex="1" parent="1">
          <mxGeometry x="10" y="1580" width="70" height="60" as="geometry" />
        </mxCell>
        <mxCell id="qejZdifnQQVO7MGU1D6S-100" value="Bộ phận quản lý" style="rounded=0;whiteSpace=wrap;html=1;fontSize=12;" vertex="1" parent="1">
          <mxGeometry x="-40" y="1395" width="70" height="60" as="geometry" />
        </mxCell>
        <mxCell id="qejZdifnQQVO7MGU1D6S-103" value="Số người thuê phòng" style="endArrow=classic;html=1;rounded=0;fontSize=12;entryX=1;entryY=0.5;entryDx=0;entryDy=0;" edge="1" parent="1" target="qejZdifnQQVO7MGU1D6S-100">
          <mxGeometry width="50" height="50" relative="1" as="geometry">
            <mxPoint x="160" y="1380" as="sourcePoint" />
            <mxPoint x="140" y="1430" as="targetPoint" />
          </mxGeometry>
        </mxCell>
        <mxCell id="qejZdifnQQVO7MGU1D6S-105" value="Báo cáo" style="edgeStyle=orthogonalEdgeStyle;rounded=0;orthogonalLoop=1;jettySize=auto;html=1;exitX=0.5;exitY=0;exitDx=0;exitDy=0;entryX=0.5;entryY=1;entryDx=0;entryDy=0;fontSize=12;" edge="1" parent="1" source="qejZdifnQQVO7MGU1D6S-104" target="qejZdifnQQVO7MGU1D6S-46">
          <mxGeometry relative="1" as="geometry">
            <Array as="points">
              <mxPoint x="680" y="1560" />
            </Array>
          </mxGeometry>
        </mxCell>
        <mxCell id="qejZdifnQQVO7MGU1D6S-104" value="Bộ phận quản lý" style="rounded=0;whiteSpace=wrap;html=1;fontSize=12;" vertex="1" parent="1">
          <mxGeometry x="650" y="1560" width="70" height="45" as="geometry" />
        </mxCell>
        <mxCell id="qejZdifnQQVO7MGU1D6S-106" value="" style="endArrow=classic;startArrow=classic;html=1;rounded=0;fontSize=12;entryX=0;entryY=0.5;entryDx=0;entryDy=0;exitX=1;exitY=0.25;exitDx=0;exitDy=0;" edge="1" parent="1" source="qejZdifnQQVO7MGU1D6S-84" target="qejZdifnQQVO7MGU1D6S-81">
          <mxGeometry width="50" height="50" relative="1" as="geometry">
            <mxPoint x="930" y="1480" as="sourcePoint" />
            <mxPoint x="980" y="1430" as="targetPoint" />
          </mxGeometry>
        </mxCell>
        <mxCell id="qejZdifnQQVO7MGU1D6S-107" value="" style="endArrow=classic;startArrow=classic;html=1;rounded=0;fontSize=12;entryX=0;entryY=0.5;entryDx=0;entryDy=0;exitX=1;exitY=0.5;exitDx=0;exitDy=0;" edge="1" parent="1" source="qejZdifnQQVO7MGU1D6S-84" target="qejZdifnQQVO7MGU1D6S-80">
          <mxGeometry width="50" height="50" relative="1" as="geometry">
            <mxPoint x="940" y="1460" as="sourcePoint" />
            <mxPoint x="990" y="1410" as="targetPoint" />
          </mxGeometry>
        </mxCell>
        <mxCell id="qejZdifnQQVO7MGU1D6S-108" value="" style="endArrow=classic;startArrow=classic;html=1;rounded=0;fontSize=12;entryX=0;entryY=0.5;entryDx=0;entryDy=0;exitX=1;exitY=0.75;exitDx=0;exitDy=0;" edge="1" parent="1" source="qejZdifnQQVO7MGU1D6S-84" target="qejZdifnQQVO7MGU1D6S-79">
          <mxGeometry width="50" height="50" relative="1" as="geometry">
            <mxPoint x="940" y="1500" as="sourcePoint" />
            <mxPoint x="990" y="1450" as="targetPoint" />
          </mxGeometry>
        </mxCell>
        <mxCell id="qejZdifnQQVO7MGU1D6S-109" value="" style="endArrow=classic;startArrow=classic;html=1;rounded=0;fontSize=12;entryX=0;entryY=0.5;entryDx=0;entryDy=0;exitX=1;exitY=1;exitDx=0;exitDy=0;" edge="1" parent="1" source="qejZdifnQQVO7MGU1D6S-84" target="qejZdifnQQVO7MGU1D6S-82">
          <mxGeometry width="50" height="50" relative="1" as="geometry">
            <mxPoint x="900" y="1650" as="sourcePoint" />
            <mxPoint x="950" y="1600" as="targetPoint" />
          </mxGeometry>
        </mxCell>
        <mxCell id="qejZdifnQQVO7MGU1D6S-112" value="" style="endArrow=classic;html=1;rounded=0;fontSize=12;entryX=0;entryY=0.5;entryDx=0;entryDy=0;exitX=1;exitY=0.5;exitDx=0;exitDy=0;" edge="1" parent="1" source="qejZdifnQQVO7MGU1D6S-82" target="qejZdifnQQVO7MGU1D6S-83">
          <mxGeometry width="50" height="50" relative="1" as="geometry">
            <mxPoint x="1170" y="1470" as="sourcePoint" />
            <mxPoint x="1240" y="1460" as="targetPoint" />
          </mxGeometry>
        </mxCell>
        <mxCell id="qejZdifnQQVO7MGU1D6S-117" value="&#xa;&#xa;1.0&#xa;&#xa;Đặt phòng" style="swimlane;fontStyle=0;childLayout=stackLayout;horizontal=1;startSize=20;fillColor=#ffffff;horizontalStack=0;resizeParent=1;resizeParentMax=0;resizeLast=0;collapsible=0;marginBottom=0;swimlaneFillColor=#ffffff;fontSize=12;" vertex="1" parent="1">
          <mxGeometry y="1760" width="100" height="60" as="geometry" />
        </mxCell>
        <mxCell id="qejZdifnQQVO7MGU1D6S-129" style="edgeStyle=orthogonalEdgeStyle;rounded=0;orthogonalLoop=1;jettySize=auto;html=1;fontSize=12;" edge="1" parent="1" source="qejZdifnQQVO7MGU1D6S-121">
          <mxGeometry relative="1" as="geometry">
            <mxPoint y="1850" as="targetPoint" />
          </mxGeometry>
        </mxCell>
        <mxCell id="qejZdifnQQVO7MGU1D6S-121" value="1.1 Kiểm tra thông tin" style="rounded=0;whiteSpace=wrap;html=1;fontSize=12;" vertex="1" parent="1">
          <mxGeometry x="40" y="1840" width="120" height="20" as="geometry" />
        </mxCell>
        <mxCell id="qejZdifnQQVO7MGU1D6S-131" style="edgeStyle=orthogonalEdgeStyle;rounded=0;orthogonalLoop=1;jettySize=auto;html=1;fontSize=12;" edge="1" parent="1" source="qejZdifnQQVO7MGU1D6S-122">
          <mxGeometry relative="1" as="geometry">
            <mxPoint y="1930" as="targetPoint" />
          </mxGeometry>
        </mxCell>
        <mxCell id="qejZdifnQQVO7MGU1D6S-122" value="1.3 Ghi sổ phòng có người" style="rounded=0;whiteSpace=wrap;html=1;fontSize=12;" vertex="1" parent="1">
          <mxGeometry x="40" y="1920" width="150" height="20" as="geometry" />
        </mxCell>
        <mxCell id="qejZdifnQQVO7MGU1D6S-130" style="edgeStyle=orthogonalEdgeStyle;rounded=0;orthogonalLoop=1;jettySize=auto;html=1;fontSize=12;" edge="1" parent="1" source="qejZdifnQQVO7MGU1D6S-123">
          <mxGeometry relative="1" as="geometry">
            <mxPoint y="1890" as="targetPoint" />
          </mxGeometry>
        </mxCell>
        <mxCell id="qejZdifnQQVO7MGU1D6S-123" value="1.2 Kiểm tra phòng trống" style="rounded=0;whiteSpace=wrap;html=1;fontSize=12;" vertex="1" parent="1">
          <mxGeometry x="40" y="1880" width="150" height="20" as="geometry" />
        </mxCell>
        <mxCell id="qejZdifnQQVO7MGU1D6S-127" value="" style="endArrow=none;html=1;rounded=0;fontSize=12;entryX=0;entryY=1;entryDx=0;entryDy=0;" edge="1" parent="1" target="qejZdifnQQVO7MGU1D6S-117">
          <mxGeometry width="50" height="50" relative="1" as="geometry">
            <mxPoint y="1930" as="sourcePoint" />
            <mxPoint x="390" y="1860" as="targetPoint" />
          </mxGeometry>
        </mxCell>
        <mxCell id="qejZdifnQQVO7MGU1D6S-154" value="&#xa;&#xa;2.0&#xa;&#xa;Trả  phòng" style="swimlane;fontStyle=0;childLayout=stackLayout;horizontal=1;startSize=20;fillColor=#ffffff;horizontalStack=0;resizeParent=1;resizeParentMax=0;resizeLast=0;collapsible=0;marginBottom=0;swimlaneFillColor=#ffffff;fontSize=12;" vertex="1" parent="1">
          <mxGeometry x="230" y="1760" width="100" height="60" as="geometry" />
        </mxCell>
        <mxCell id="qejZdifnQQVO7MGU1D6S-155" style="edgeStyle=orthogonalEdgeStyle;rounded=0;orthogonalLoop=1;jettySize=auto;html=1;fontSize=12;" edge="1" parent="1" source="qejZdifnQQVO7MGU1D6S-156">
          <mxGeometry relative="1" as="geometry">
            <mxPoint x="230" y="1850" as="targetPoint" />
          </mxGeometry>
        </mxCell>
        <mxCell id="qejZdifnQQVO7MGU1D6S-156" value="2.1 Kiểm tra thông tin" style="rounded=0;whiteSpace=wrap;html=1;fontSize=12;" vertex="1" parent="1">
          <mxGeometry x="270" y="1840" width="120" height="20" as="geometry" />
        </mxCell>
        <mxCell id="qejZdifnQQVO7MGU1D6S-157" style="edgeStyle=orthogonalEdgeStyle;rounded=0;orthogonalLoop=1;jettySize=auto;html=1;fontSize=12;" edge="1" parent="1" source="qejZdifnQQVO7MGU1D6S-158">
          <mxGeometry relative="1" as="geometry">
            <mxPoint x="230" y="1930" as="targetPoint" />
          </mxGeometry>
        </mxCell>
        <mxCell id="qejZdifnQQVO7MGU1D6S-158" value="2.3 Thanh toán tiền dịch vụ" style="rounded=0;whiteSpace=wrap;html=1;fontSize=12;" vertex="1" parent="1">
          <mxGeometry x="270" y="1920" width="160" height="20" as="geometry" />
        </mxCell>
        <mxCell id="qejZdifnQQVO7MGU1D6S-159" style="edgeStyle=orthogonalEdgeStyle;rounded=0;orthogonalLoop=1;jettySize=auto;html=1;fontSize=12;" edge="1" parent="1" source="qejZdifnQQVO7MGU1D6S-160">
          <mxGeometry relative="1" as="geometry">
            <mxPoint x="230" y="1890" as="targetPoint" />
          </mxGeometry>
        </mxCell>
        <mxCell id="qejZdifnQQVO7MGU1D6S-160" value="2.2 Thanh toán tiền phòng&amp;nbsp;" style="rounded=0;whiteSpace=wrap;html=1;fontSize=12;" vertex="1" parent="1">
          <mxGeometry x="270" y="1880" width="150" height="20" as="geometry" />
        </mxCell>
        <mxCell id="qejZdifnQQVO7MGU1D6S-161" style="edgeStyle=orthogonalEdgeStyle;rounded=0;orthogonalLoop=1;jettySize=auto;html=1;fontSize=12;" edge="1" parent="1" source="qejZdifnQQVO7MGU1D6S-162">
          <mxGeometry relative="1" as="geometry">
            <mxPoint x="230" y="1970" as="targetPoint" />
          </mxGeometry>
        </mxCell>
        <mxCell id="qejZdifnQQVO7MGU1D6S-162" value="2.4 Ghi sổ phòng trống" style="rounded=0;whiteSpace=wrap;html=1;fontSize=12;" vertex="1" parent="1">
          <mxGeometry x="270" y="1960" width="160" height="20" as="geometry" />
        </mxCell>
        <mxCell id="qejZdifnQQVO7MGU1D6S-163" value="" style="endArrow=none;html=1;rounded=0;fontSize=12;entryX=0;entryY=1;entryDx=0;entryDy=0;" edge="1" parent="1" target="qejZdifnQQVO7MGU1D6S-154">
          <mxGeometry width="50" height="50" relative="1" as="geometry">
            <mxPoint x="230" y="1970" as="sourcePoint" />
            <mxPoint x="620" y="1860" as="targetPoint" />
          </mxGeometry>
        </mxCell>
        <mxCell id="qejZdifnQQVO7MGU1D6S-164" value="&#xa;&#xa;3.0&#xa;&#xa;Báo cáo" style="swimlane;fontStyle=0;childLayout=stackLayout;horizontal=1;startSize=20;fillColor=#ffffff;horizontalStack=0;resizeParent=1;resizeParentMax=0;resizeLast=0;collapsible=0;marginBottom=0;swimlaneFillColor=#ffffff;fontSize=12;" vertex="1" parent="1">
          <mxGeometry x="485" y="1760" width="100" height="60" as="geometry" />
        </mxCell>
        <mxCell id="qejZdifnQQVO7MGU1D6S-165" style="edgeStyle=orthogonalEdgeStyle;rounded=0;orthogonalLoop=1;jettySize=auto;html=1;fontSize=12;" edge="1" parent="1" source="qejZdifnQQVO7MGU1D6S-166">
          <mxGeometry relative="1" as="geometry">
            <mxPoint x="485" y="1850" as="targetPoint" />
          </mxGeometry>
        </mxCell>
        <mxCell id="qejZdifnQQVO7MGU1D6S-166" value="3.1 Lập báo cáo" style="rounded=0;whiteSpace=wrap;html=1;fontSize=12;" vertex="1" parent="1">
          <mxGeometry x="525" y="1840" width="120" height="20" as="geometry" />
        </mxCell>
        <mxCell id="qejZdifnQQVO7MGU1D6S-173" value="" style="endArrow=none;html=1;rounded=0;fontSize=12;entryX=0;entryY=1;entryDx=0;entryDy=0;" edge="1" parent="1" target="qejZdifnQQVO7MGU1D6S-164">
          <mxGeometry width="50" height="50" relative="1" as="geometry">
            <mxPoint x="485" y="1850" as="sourcePoint" />
            <mxPoint x="875" y="1860" as="targetPoint" />
          </mxGeometry>
        </mxCell>
        <mxCell id="qejZdifnQQVO7MGU1D6S-175" value="Thuê phòng" style="rounded=1;whiteSpace=wrap;html=1;fontSize=12;" vertex="1" parent="1">
          <mxGeometry x="220" y="1700" width="120" height="30" as="geometry" />
        </mxCell>
        <mxCell id="qejZdifnQQVO7MGU1D6S-178" value="" style="endArrow=classic;html=1;rounded=0;fontSize=12;exitX=0.5;exitY=1;exitDx=0;exitDy=0;entryX=0.5;entryY=0;entryDx=0;entryDy=0;" edge="1" parent="1" source="qejZdifnQQVO7MGU1D6S-175" target="qejZdifnQQVO7MGU1D6S-117">
          <mxGeometry width="50" height="50" relative="1" as="geometry">
            <mxPoint x="100" y="1760" as="sourcePoint" />
            <mxPoint x="150" y="1710" as="targetPoint" />
          </mxGeometry>
        </mxCell>
        <mxCell id="qejZdifnQQVO7MGU1D6S-179" value="" style="endArrow=classic;html=1;rounded=0;fontSize=12;entryX=0.5;entryY=0;entryDx=0;entryDy=0;" edge="1" parent="1" target="qejZdifnQQVO7MGU1D6S-154">
          <mxGeometry width="50" height="50" relative="1" as="geometry">
            <mxPoint x="280" y="1730" as="sourcePoint" />
            <mxPoint x="190" y="1690" as="targetPoint" />
          </mxGeometry>
        </mxCell>
        <mxCell id="qejZdifnQQVO7MGU1D6S-180" value="" style="endArrow=classic;html=1;rounded=0;fontSize=12;entryX=0.5;entryY=0;entryDx=0;entryDy=0;" edge="1" parent="1" target="qejZdifnQQVO7MGU1D6S-164">
          <mxGeometry width="50" height="50" relative="1" as="geometry">
            <mxPoint x="280" y="1730" as="sourcePoint" />
            <mxPoint x="460" y="1710" as="targetPoint" />
          </mxGeometry>
        </mxCell>
        <mxCell id="qejZdifnQQVO7MGU1D6S-181" value="&#xa;&#xa;1.0&#xa;&#xa;Quản lý trang bị" style="swimlane;fontStyle=0;childLayout=stackLayout;horizontal=1;startSize=20;fillColor=#ffffff;horizontalStack=0;resizeParent=1;resizeParentMax=0;resizeLast=0;collapsible=0;marginBottom=0;swimlaneFillColor=#ffffff;fontSize=12;" vertex="1" parent="1">
          <mxGeometry x="840" y="1760" width="100" height="60" as="geometry" />
        </mxCell>
        <mxCell id="qejZdifnQQVO7MGU1D6S-182" style="edgeStyle=orthogonalEdgeStyle;rounded=0;orthogonalLoop=1;jettySize=auto;html=1;fontSize=12;" edge="1" parent="1" source="qejZdifnQQVO7MGU1D6S-183">
          <mxGeometry relative="1" as="geometry">
            <mxPoint x="840" y="1850" as="targetPoint" />
          </mxGeometry>
        </mxCell>
        <mxCell id="qejZdifnQQVO7MGU1D6S-183" value="1.1 Kiểm tra thông tin" style="rounded=0;whiteSpace=wrap;html=1;fontSize=12;" vertex="1" parent="1">
          <mxGeometry x="880" y="1840" width="120" height="20" as="geometry" />
        </mxCell>
        <mxCell id="qejZdifnQQVO7MGU1D6S-184" style="edgeStyle=orthogonalEdgeStyle;rounded=0;orthogonalLoop=1;jettySize=auto;html=1;fontSize=12;" edge="1" parent="1" source="qejZdifnQQVO7MGU1D6S-185">
          <mxGeometry relative="1" as="geometry">
            <mxPoint x="840" y="1930" as="targetPoint" />
          </mxGeometry>
        </mxCell>
        <mxCell id="qejZdifnQQVO7MGU1D6S-185" value="1.3 Cập nhật phòng trang bị" style="rounded=0;whiteSpace=wrap;html=1;fontSize=12;" vertex="1" parent="1">
          <mxGeometry x="880" y="1920" width="160" height="20" as="geometry" />
        </mxCell>
        <mxCell id="qejZdifnQQVO7MGU1D6S-186" style="edgeStyle=orthogonalEdgeStyle;rounded=0;orthogonalLoop=1;jettySize=auto;html=1;fontSize=12;" edge="1" parent="1" source="qejZdifnQQVO7MGU1D6S-187">
          <mxGeometry relative="1" as="geometry">
            <mxPoint x="840" y="1890" as="targetPoint" />
          </mxGeometry>
        </mxCell>
        <mxCell id="qejZdifnQQVO7MGU1D6S-187" value="1.2 Cập nhật ngày trang bị" style="rounded=0;whiteSpace=wrap;html=1;fontSize=12;" vertex="1" parent="1">
          <mxGeometry x="880" y="1880" width="150" height="20" as="geometry" />
        </mxCell>
        <mxCell id="qejZdifnQQVO7MGU1D6S-190" value="" style="endArrow=none;html=1;rounded=0;fontSize=12;entryX=0;entryY=1;entryDx=0;entryDy=0;" edge="1" parent="1" target="qejZdifnQQVO7MGU1D6S-181">
          <mxGeometry width="50" height="50" relative="1" as="geometry">
            <mxPoint x="840" y="1930" as="sourcePoint" />
            <mxPoint x="1230" y="1860" as="targetPoint" />
          </mxGeometry>
        </mxCell>
        <mxCell id="qejZdifnQQVO7MGU1D6S-191" value="&#xa;&#xa;2.0&#xa;&#xa;Báo cáo" style="swimlane;fontStyle=0;childLayout=stackLayout;horizontal=1;startSize=20;fillColor=#ffffff;horizontalStack=0;resizeParent=1;resizeParentMax=0;resizeLast=0;collapsible=0;marginBottom=0;swimlaneFillColor=#ffffff;fontSize=12;" vertex="1" parent="1">
          <mxGeometry x="1060" y="1760" width="100" height="60" as="geometry" />
        </mxCell>
        <mxCell id="qejZdifnQQVO7MGU1D6S-192" style="edgeStyle=orthogonalEdgeStyle;rounded=0;orthogonalLoop=1;jettySize=auto;html=1;fontSize=12;" edge="1" parent="1" source="qejZdifnQQVO7MGU1D6S-193">
          <mxGeometry relative="1" as="geometry">
            <mxPoint x="1060" y="1850" as="targetPoint" />
          </mxGeometry>
        </mxCell>
        <mxCell id="qejZdifnQQVO7MGU1D6S-193" value="2.1 Lập báo cáo" style="rounded=0;whiteSpace=wrap;html=1;fontSize=12;" vertex="1" parent="1">
          <mxGeometry x="1100" y="1840" width="120" height="20" as="geometry" />
        </mxCell>
        <mxCell id="qejZdifnQQVO7MGU1D6S-194" value="" style="endArrow=none;html=1;rounded=0;fontSize=12;entryX=0;entryY=1;entryDx=0;entryDy=0;" edge="1" parent="1" target="qejZdifnQQVO7MGU1D6S-191">
          <mxGeometry width="50" height="50" relative="1" as="geometry">
            <mxPoint x="1060" y="1850" as="sourcePoint" />
            <mxPoint x="1450" y="1860" as="targetPoint" />
          </mxGeometry>
        </mxCell>
        <mxCell id="qejZdifnQQVO7MGU1D6S-195" value="Quản lý trang bị" style="rounded=1;whiteSpace=wrap;html=1;fontSize=12;" vertex="1" parent="1">
          <mxGeometry x="940" y="1670" width="120" height="60" as="geometry" />
        </mxCell>
        <mxCell id="qejZdifnQQVO7MGU1D6S-196" value="" style="endArrow=classic;html=1;rounded=0;fontSize=12;entryX=0.5;entryY=0;entryDx=0;entryDy=0;exitX=0.5;exitY=1;exitDx=0;exitDy=0;" edge="1" parent="1" source="qejZdifnQQVO7MGU1D6S-195" target="qejZdifnQQVO7MGU1D6S-181">
          <mxGeometry width="50" height="50" relative="1" as="geometry">
            <mxPoint x="750" y="1750" as="sourcePoint" />
            <mxPoint x="800" y="1700" as="targetPoint" />
          </mxGeometry>
        </mxCell>
        <mxCell id="qejZdifnQQVO7MGU1D6S-197" value="" style="endArrow=classic;html=1;rounded=0;fontSize=12;entryX=0.5;entryY=0;entryDx=0;entryDy=0;exitX=0.5;exitY=1;exitDx=0;exitDy=0;" edge="1" parent="1" source="qejZdifnQQVO7MGU1D6S-195" target="qejZdifnQQVO7MGU1D6S-191">
          <mxGeometry width="50" height="50" relative="1" as="geometry">
            <mxPoint x="850" y="1720" as="sourcePoint" />
            <mxPoint x="900" y="1670" as="targetPoint" />
          </mxGeometry>
        </mxCell>
      </root>
    </mxGraphModel>
  </diagram>
</mxfile>
